<svg xmlns="http://www.w3.org/2000/svg" viewBox="0 0 900 600">
  <rect width="900" height="200" fill="#0099b5"/>
  <rect y="200" width="900" height="200" fill="#ffffff"/>
  <rect y="400" width="900" height="200" fill="#1eb53a"/>
  <rect y="195" width="900" height="10" fill="#ce1126"/>
  <rect y="395" width="900" height="10" fill="#ce1126"/>
  <circle cx="180" cy="100" r="70" fill="#ffffff"/>
  <circle cx="200" cy="100" r="58" fill="#0099b5"/>
  <g fill="#ffffff" transform="translate(310 100)">
    <g id="star">
      <path d="M0 -40 L3.5 12 L36 12 L7 24 L10.5 40 L0 28 L-10.5 40 L-7 24 L-36 12 L-3.5 12 Z"/>
    </g>
    <use href="#star" transform="rotate(0)"/>
    <use href="#star" transform="rotate(30)"/>
    <use href="#star" transform="rotate(60)"/>
    <use href="#star" transform="rotate(90)"/>
    <use href="#star" transform="rotate(120)"/>
    <use href="#star" transform="rotate(150)"/>
    <use href="#star" transform="rotate(180)"/>
    <use href="#star" transform="rotate(210)"/>
    <use href="#star" transform="rotate(240)"/>
    <use href="#star" transform="rotate(270)"/>
    <use href="#star" transform="rotate(300)"/>
    <use href="#star" transform="rotate(330)"/>
    <use href="#star" transform="rotate(15) translate(0 -55) scale(0.42)"/>
    <use href="#star" transform="rotate(45) translate(0 -55) scale(0.42)"/>
    <use href="#star" transform="rotate(75) translate(0 -55) scale(0.42)"/>
    <use href="#star" transform="rotate(105) translate(0 -55) scale(0.42)"/>
    <use href="#star" transform="rotate(135) translate(0 -55) scale(0.42)"/>
    <use href="#star" transform="rotate(165) translate(0 -55) scale(0.42)"/>
    <use href="#star" transform="rotate(195) translate(0 -55) scale(0.42)"/>
    <use href="#star" transform="rotate(225) translate(0 -55) scale(0.42)"/>
    <use href="#star" transform="rotate(255) translate(0 -55) scale(0.42)"/>
    <use href="#star" transform="rotate(285) translate(0 -55) scale(0.42)"/>
    <use href="#star" transform="rotate(315) translate(0 -55) scale(0.42)"/>
    <use href="#star" transform="rotate(345) translate(0 -55) scale(0.42)"/>
  </g>
</svg>
