<svg xmlns="http://www.w3.org/2000/svg" viewBox="0 0 64 64" role="img" aria-label="WTMA">
  <rect width="64" height="64" rx="12" fill="#ffffff"/>
  <g transform="translate(8 10) scale(0.19)">
    <path d="M8 88 L28 20 L48 68 L68 20 L88 88 L72 88 L58 42 L48 68 L38 42 L24 88 Z" fill="#e62e52"/>
    <path d="M68 20 L88 88 L104 88 L84 20 Z" fill="#243a6e"/>
    <path d="M96 20 L116 88 L132 88 L112 20 Z" fill="#243a6e"/>
    <path d="M120 20 L140 68 L160 20 L180 88 L164 88 L150 42 L140 68 L130 42 L116 88 L100 88 L120 20 Z" fill="#e62e52"/>
  </g>
</svg>
