<svg xmlns="http://www.w3.org/2000/svg" width="720" height="360" viewBox="0 0 720 360">
  <defs>
    <linearGradient id="ocean" x1="0%" y1="0%" x2="0%" y2="100%">
      <stop offset="0%" stop-color="#020617"/>
      <stop offset="50%" stop-color="#0b1330"/>
      <stop offset="100%" stop-color="#020617"/>
    </linearGradient>
    <filter id="glow">
      <feGaussianBlur stdDeviation="1.2" result="blur"/>
      <feMerge>
        <feMergeNode in="blur"/>
        <feMergeNode in="SourceGraphic"/>
      </feMerge>
    </filter>
  </defs>
  <rect width="720" height="360" fill="url(#ocean)"/>
  <g fill="#38bdf8" opacity="0.95" filter="url(#glow)">
    <!-- North America -->
    <path d="M52 88c28-18 62-14 82 12 14 18 12 42-8 58-22 18-52 14-68-8-12-16-10-42-6-62z"/>
    <path d="M118 72c34-22 72-12 88 18 12 22 6 48-18 62-28 16-62 6-76-24-10-24-2-48 6-56z"/>
  </g>
  <g fill="#22d3ee" opacity="0.92">
    <!-- South America -->
    <path d="M168 168c18-8 32 4 36 28 4 28-12 58-32 72-18 12-38 2-42-22-4-22 10-62 38-78z"/>
    <!-- Europe -->
    <path d="M318 88c28-14 58-6 72 22 10 22 2 48-24 58-30 12-58-4-68-30-8-22 4-44 20-50z"/>
    <!-- Africa -->
    <path d="M328 148c22-6 48 8 54 38 6 32-8 72-32 92-22 18-48 8-56-18-8-28 8-88 34-112z"/>
    <!-- Asia -->
    <path d="M398 72c52-18 108-4 128 38 16 34 8 72-28 92-42 22-96 8-118-38-16-38-2-78 18-92z"/>
    <!-- Australia -->
    <path d="M548 218c28-10 58 4 64 32 6 26-12 48-38 52-28 4-52-16-54-42-2-24 12-38 28-42z"/>
    <!-- Greenland -->
    <path d="M248 42c16-12 38-8 44 12 6 18-8 36-28 38-22 2-38-18-32-38 4-14 10-18 16-12z"/>
    <!-- Southeast Asia islands -->
    <path d="M498 178c12-6 26 2 28 16 2 14-10 26-24 24-16-2-24-18-18-32 4-10 10-12 14-8z"/>
    <path d="M528 192c10-5 22 2 24 14 2 12-8 22-20 20-14-2-20-16-16-28 2-8 8-10 12-6z"/>
    <!-- Japan -->
    <path d="M598 118c8-4 16 2 14 12-2 10-12 16-20 10-8-6-6-18 6-22z"/>
    <!-- UK -->
    <path d="M298 98c6-4 12 0 10 8-2 8-12 10-16 4-4-6 2-12 6-12z"/>
    <!-- Madagascar -->
    <path d="M388 208c6-8 14-4 14 8 0 12-8 22-16 18-8-4-6-20 2-26z"/>
    <!-- Indonesia -->
    <path d="M468 198c14-4 28 6 26 20-2 14-18 22-32 14-14-8-10-28 6-34z"/>
  </g>
  <g fill="#67e8f9" opacity="0.8">
    <path d="M142 128c10-6 22 0 24 14 2 12-8 22-20 18-14-4-14-24 0-32z"/>
    <path d="M438 138c12-8 26 0 28 16 2 14-10 26-24 22-16-4-18-28-4-38z"/>
    <path d="M358 168c8-6 18 0 18 12 0 12-10 20-18 14-10-6-8-22 0-26z"/>
  </g>
</svg>
