<svg xmlns="http://www.w3.org/2000/svg" viewBox="0 0 320 120" role="img" aria-label="World Textile Marketing Agency">
  <defs>
    <linearGradient id="w-left" x1="0%" y1="0%" x2="100%" y2="100%">
      <stop offset="0%" stop-color="#e62e52"/>
      <stop offset="100%" stop-color="#c41e3a"/>
    </linearGradient>
    <linearGradient id="w-right" x1="0%" y1="0%" x2="100%" y2="100%">
      <stop offset="0%" stop-color="#3b548d"/>
      <stop offset="100%" stop-color="#243a6e"/>
    </linearGradient>
  </defs>
  <g transform="translate(8, 8)">
    <path d="M8 88 L28 20 L48 68 L68 20 L88 88 L72 88 L58 42 L48 68 L38 42 L24 88 Z" fill="url(#w-left)"/>
    <path d="M68 20 L88 88 L104 88 L84 20 Z" fill="url(#w-right)"/>
    <path d="M96 20 L116 88 L132 88 L112 20 Z" fill="url(#w-right)"/>
    <path d="M120 20 L140 68 L160 20 L180 88 L164 88 L150 42 L140 68 L130 42 L116 88 L100 88 L120 20 Z" fill="url(#w-left)"/>
  </g>
  <text x="200" y="42" font-family="Segoe UI, Arial, sans-serif" font-size="18" font-weight="700" fill="#243a6e">World Textile</text>
  <text x="200" y="68" font-family="Segoe UI, Arial, sans-serif" font-size="14" font-weight="500" fill="#3b548d">Marketing Agency</text>
  <text x="200" y="92" font-family="Segoe UI, Arial, sans-serif" font-size="11" font-weight="600" letter-spacing="3" fill="#e62e52">WTMA</text>
</svg>
